<svg width="670" height="775" viewBox="0 0 670 775" fill="none" xmlns="http://www.w3.org/2000/svg">
<rect y="105" width="670" height="670" rx="157" fill="#F3E9E5"/>
<path d="M328.542 657.981C330.397 661.692 331.325 665.558 331.325 669.578C331.325 672.671 330.397 676.072 328.542 679.783C287.722 677.928 248.138 677 209.792 677C172.064 677 132.79 677.928 91.9697 679.783C90.7327 674.835 90.1143 671.434 90.1143 669.578C90.1143 668.032 90.7327 664.166 91.9697 657.981C102.175 656.744 110.524 655.507 117.019 654.271C123.513 652.724 131.553 650.405 141.14 647.312C150.726 644.22 157.993 639.891 162.941 634.324C167.889 628.449 170.518 621.491 170.827 613.45C172.064 582.835 172.683 545.726 172.683 502.122C172.683 487.588 172.528 462.848 172.219 427.903C171.91 392.959 171.755 362.343 171.755 336.058C154.128 325.234 124.44 318.895 82.6924 317.039C81.4554 312.091 80.8369 308.226 80.8369 305.442C80.8369 303.587 81.4554 300.185 82.6924 295.237C142.686 289.052 194.948 276.373 239.479 257.2C247.211 260.293 252.622 264.313 255.715 269.261V342.552C285.712 316.266 314.471 295.237 341.994 279.466C369.517 263.385 397.349 255.345 425.49 255.345C460.744 255.345 485.638 265.241 500.173 285.032C515.017 304.824 522.748 335.748 523.366 377.806L528.005 613.45C528.314 621.491 530.633 628.449 534.963 634.324C539.602 639.891 546.096 644.22 554.445 647.312C563.104 650.405 570.217 652.724 575.783 654.271C581.35 655.507 588.617 656.744 597.585 657.981C598.822 664.166 599.44 668.341 599.44 670.506C599.44 672.98 598.822 676.072 597.585 679.783C557.692 677.928 520.892 677 487.185 677C454.405 677 418.068 677.928 378.176 679.783C376.939 674.835 376.32 671.124 376.32 668.65C376.32 666.486 376.939 662.929 378.176 657.981C386.216 656.744 392.865 655.507 398.122 654.271C403.688 652.724 409.873 650.405 416.677 647.312C423.789 644.22 429.047 639.891 432.448 634.324C436.159 628.449 438.015 621.491 438.015 613.45L438.942 393.113C438.942 337.14 422.089 309.153 388.381 309.153C356.838 309.153 312.616 330.182 255.715 372.239C255.715 462.229 256.952 542.633 259.426 613.45C259.735 621.491 262.054 628.449 266.384 634.324C271.022 639.891 277.517 644.22 285.866 647.312C294.216 650.405 301.174 652.724 306.74 654.271C312.307 655.507 319.574 656.744 328.542 657.981Z" fill="#E31637"/>
</svg>
